<?xml version="1.0" encoding="utf-8"?>
<!-- Generator: Adobe Illustrator 16.0.0, SVG Export Plug-In . SVG Version: 6.00 Build 0)  -->
<!DOCTYPE svg PUBLIC "-//W3C//DTD SVG 1.1//EN" "http://www.w3.org/Graphics/SVG/1.1/DTD/svg11.dtd">
<svg version="1.1" id="Layer_1" xmlns="http://www.w3.org/2000/svg" xmlns:xlink="http://www.w3.org/1999/xlink" x="0px" y="0px"
	 width="295px" height="62.306px" viewBox="0 0 295 62.306" enable-background="new 0 0 295 62.306" xml:space="preserve">
<g>
	<g>
		<g>
			<path fill="#003366" d="M73.106,27.917h-8.542v-0.833c0.441-0.024,1.615-0.147,1.934-0.27c0.587-0.221,0.759-0.661,0.759-1.199
				v-11.97c0-0.538-0.147-0.954-0.759-1.199c-0.465-0.195-1.493-0.392-1.934-0.416v-0.833h8.934c3.941,0,6.242,1.003,6.242,3.72
				c0,2.326-1.983,3.329-4.284,3.892v0.221c2.473,0.271,5.165,1.517,5.165,4.356C80.62,26.791,77.805,27.917,73.106,27.917z
				 M72.396,12.202c-0.269,0-0.808,0.025-1.102,0.05v6.29h0.539c2.471,0,3.598-1.296,3.598-3.353
				C75.432,13.059,74.208,12.202,72.396,12.202z M72.347,19.594c-0.27,0-0.857,0.023-1.053,0.049v6.217
				c0.123,0.587,0.931,1.053,1.909,1.053c1.812,0,3.036-1.323,3.036-3.647C76.239,20.892,74.868,19.594,72.347,19.594z"/>
			<path fill="#003366" d="M88.521,28.284c-4.235,0-6.168-2.693-6.168-6.096c0-3.107,2.178-5.948,5.899-5.948
				c3.867,0,5.263,2.252,5.263,4.847v0.685h-7.417c0,3.182,1.126,4.919,3.647,4.919c1.469,0,2.472-0.735,3.28-2.104l0.807,0.587
				C92.854,26.914,90.896,28.284,88.521,28.284z M88.105,17.146c-1.15,0-1.958,1.249-2.007,3.745l3.721-0.049
				C89.819,18.933,89.525,17.146,88.105,17.146z"/>
			<path fill="#003366" d="M104.525,28.259c-1.591,0-2.302-0.661-2.791-1.615h-0.073c-0.808,0.88-1.762,1.64-3.697,1.64
				c-1.689,0-2.986-1.2-2.986-2.815c0-2.105,1.2-2.84,2.448-3.305c1.42-0.538,3.329-1.004,4.259-1.517v-1.104
				c0-0.806-0.097-2.471-1.518-2.471c-0.636,0-1.003,0.245-1.248,0.465c0.024,0.366,0.318,0.955,0.318,1.616
				c0,0.538-0.661,1.394-1.958,1.394c-1.297,0-1.762-0.832-1.762-1.64c0-1.542,2.668-2.667,4.822-2.667
				c2.693,0,4.871,0.44,4.871,3.746c0,2.228-0.147,4.798-0.147,5.604c0,0.293,0.098,1.126,0.881,1.126
				c0.637,0,0.857-1.054,0.882-1.959h0.881C107.609,27.084,106.581,28.259,104.525,28.259z M98.675,24.784
				c0,1.223,0.588,1.761,1.322,1.761c0.833,0,1.225-0.392,1.616-0.905l0.098-4.014C99.973,22.288,98.675,22.875,98.675,24.784z"/>
			<path fill="#003366" d="M114.141,28.284c-4.087,0-6.021-2.595-6.021-6.07c0-3.11,2.35-5.973,6.193-5.973
				c2.913,0,4.308,1.248,4.308,2.914c0,1.077-0.514,1.811-1.812,1.811c-0.758,0-1.933-0.417-1.933-1.469
				c0-0.955,0.392-1.052,0.392-1.518c-0.074-0.563-0.196-0.857-0.955-0.857c-1.224,0-2.375,1.274-2.375,4.945
				c0,2.741,1.346,4.602,3.084,4.602c1.591,0,2.448-0.856,3.231-2.227l0.807,0.587C118.204,26.839,116.442,28.284,114.141,28.284z"
				/>
			<path fill="#003366" d="M127.062,27.917v-0.76c0.343-0.023,0.636-0.073,0.906-0.17c0.343-0.147,0.44-0.54,0.44-1.078v-5.458
				c0-1.617-0.686-2.497-1.493-2.497c-1.395,0-2.154,1.003-2.374,1.566v6.265c0,0.539,0.123,0.881,0.489,1.078
				c0.27,0.171,0.587,0.27,0.906,0.292v0.76h-6.609v-0.76c0.44-0.023,0.735-0.073,1.077-0.17c0.465-0.147,0.636-0.54,0.636-1.078
				V12.447c0-0.465-0.269-1.151-0.661-1.42c-0.293-0.195-1.223-0.318-1.664-0.341V9.951l5.654-0.295l0.171,0.173v8.418h0.049
				c0.93-0.906,1.909-2.007,4.014-2.007c2.277,0,3.329,1.542,3.329,3.868v5.703c0,0.54,0.147,0.881,0.588,1.076
				c0.343,0.148,0.636,0.247,1.077,0.27v0.76H127.062z"/>
			<path fill="#003366" d="M139.32,28.307c-1.566,0-2.938-0.66-3.451-1.027l-0.368,0.783h-0.808l-0.122-4.186h0.734
				c0.441,1.395,1.934,3.524,3.843,3.524c1.248,0,1.935-0.661,1.935-1.786c0-1.248-1.151-1.64-2.865-2.203
				c-1.566-0.514-3.329-1.395-3.329-3.671c0-1.91,1.64-3.501,4.431-3.501c1.125,0,2.325,0.342,3.035,0.685l0.27-0.685h0.784
				l0.171,3.819h-0.734c-0.465-1.566-1.762-2.888-3.133-2.888c-1.053,0-1.763,0.637-1.763,1.493c0,1.224,0.881,1.517,2.815,2.129
				c1.982,0.637,3.377,1.689,3.377,3.695C144.142,26.961,141.988,28.307,139.32,28.307z"/>
			<path fill="#003366" d="M145.363,27.917v-0.76c0.44-0.023,0.734-0.073,1.077-0.17c0.465-0.147,0.661-0.54,0.661-1.078v-6.828
				c-0.049-0.514-0.245-0.957-0.636-1.225c-0.294-0.194-1.028-0.391-1.469-0.417v-0.734l5.434-0.293l0.172,0.171v9.18
				c0,0.538,0.22,0.929,0.66,1.102c0.366,0.146,0.637,0.27,1.077,0.292v0.76H145.363z M148.667,14.135
				c-1.174,0-2.129-0.93-2.129-2.104c0-1.175,0.955-2.105,2.129-2.105c1.175,0,2.129,0.93,2.129,2.105
				C150.796,13.205,149.842,14.135,148.667,14.135z"/>
			<path fill="#003366" d="M162.006,28.014l-0.171-0.17v-1.052l-0.099-0.025c-0.538,0.563-1.763,1.519-3.28,1.519
				c-2.864,0-5.091-2.4-5.091-6.169c0-3.45,2.644-5.874,5.482-5.874c1.518,0,2.669,0.564,2.962,0.711v-4.358
				c-0.049-0.515-0.245-1.149-0.637-1.419c-0.465-0.318-1.468-0.466-2.178-0.514V9.951l6.144-0.295l0.171,0.173v15.64
				c0,0.587,0.22,0.93,0.611,1.198c0.295,0.197,1.028,0.246,1.47,0.27v0.733L162.006,28.014z M161.81,19.081
				c-0.22-0.76-0.758-1.836-2.056-1.836c-1.42,0-2.546,1.883-2.546,5.066c0,2.3,0.734,4.503,2.644,4.503
				c0.93,0,1.443-0.441,1.958-1.101V19.081z"/>
			<path fill="#003366" d="M174.288,28.284c-4.234,0-6.168-2.693-6.168-6.096c0-3.107,2.179-5.948,5.899-5.948
				c3.867,0,5.262,2.252,5.262,4.847v0.685h-7.416c0,3.182,1.126,4.919,3.646,4.919c1.469,0,2.473-0.735,3.28-2.104l0.808,0.587
				C178.621,26.914,176.663,28.284,174.288,28.284z M173.872,17.146c-1.15,0-1.958,1.249-2.007,3.745l3.721-0.049
				C175.586,18.933,175.292,17.146,173.872,17.146z"/>
			<path fill="#003366" d="M194.844,28.284c-4.848,0-8.69-3.159-8.69-8.519c0-5.311,3.794-8.959,9.081-8.959
				c1.935,0,3.305,0.564,4.406,1.151l0.686-0.978h0.954l0.099,6.339h-1.028c-1.2-3.746-2.644-5.483-4.993-5.483
				c-2.986,0-4.675,2.766-4.675,7.489c0,5.19,2.105,7.393,5.091,7.393c2.546,0,4.039-1.273,5.434-3.427l0.809,0.391
				C200.841,26.178,198.564,28.284,194.844,28.284z"/>
			<path fill="#003366" d="M209.354,28.284c-3.378,0-6.167-2.253-6.167-6.022c0-3.549,2.423-6.021,6.266-6.021
				c3.916,0,6.241,2.497,6.241,5.948C215.693,25.591,213.539,28.284,209.354,28.284z M209.476,17.099
				c-1.981,0-2.397,2.691-2.397,5.016c0,2.889,0.586,5.313,2.397,5.313c1.713,0,2.326-2.35,2.326-5.263
				C211.802,19.618,211.337,17.099,209.476,17.099z"/>
			<path fill="#003366" d="M231.893,27.917v-0.76c0.343-0.023,0.636-0.073,0.905-0.17c0.344-0.147,0.392-0.54,0.392-1.078v-5.458
				c0-1.617-0.611-2.497-1.42-2.497c-1.395,0-2.079,0.953-2.301,1.516v6.315c0,0.539,0.099,0.881,0.466,1.078
				c0.27,0.171,0.514,0.27,0.833,0.292v0.76h-6.12v-0.76c0.344-0.023,0.637-0.073,0.906-0.17c0.343-0.147,0.391-0.54,0.391-1.078
				v-5.458c0-1.617-0.611-2.497-1.419-2.497c-1.396,0-2.081,0.953-2.301,1.516v6.315c0,0.539,0.099,0.881,0.465,1.078
				c0.27,0.171,0.514,0.27,0.832,0.292v0.76h-6.512v-0.76c0.442-0.023,0.735-0.073,1.078-0.17c0.466-0.147,0.637-0.54,0.637-1.078
				v-6.828c-0.05-0.514-0.27-1.029-0.661-1.299c-0.294-0.194-0.783-0.317-1.224-0.343v-0.734l5.213-0.293l0.172,0.171v1.615h0.048
				c0.931-0.905,1.787-1.958,3.894-1.958c1.59,0,2.643,0.807,3.107,2.081h0.099c0.979-0.979,1.981-2.081,4.087-2.081
				c2.276,0,3.256,1.591,3.256,3.917v5.654c0,0.54,0.146,0.881,0.587,1.076c0.343,0.148,0.636,0.247,1.078,0.27v0.76H231.893z"/>
			<path fill="#003366" d="M247.16,28.21c-1.395,0-2.252-0.343-2.814-0.76h-0.099c0,1.003,0,2.938,0,3.747
				c0,0.537,0.245,0.953,0.686,1.125c0.368,0.148,1.371,0.344,1.812,0.368v0.758h-8.005V32.69c0.441-0.024,1.028-0.123,1.372-0.22
				c0.465-0.148,0.637-0.588,0.637-1.127c0-2.326,0-10.549,0-12.312c-0.051-0.513-0.246-0.956-0.637-1.223
				c-0.294-0.197-0.906-0.343-1.347-0.369v-0.734l5.311-0.293l0.172,0.146v1.274l0.099,0.024c0.563-0.611,1.786-1.615,3.305-1.615
				c2.838,0,4.944,2.424,4.944,6.095C252.595,25.763,250,28.21,247.16,28.21z M246.181,17.808c-0.93,0-1.444,0.39-1.934,1.052v6.609
				c0.245,0.734,0.783,1.762,2.057,1.762c1.42,0,2.448-1.688,2.448-4.847C248.752,20.108,248.065,17.808,246.181,17.808z"/>
			<path fill="#003366" d="M253.691,27.917v-0.76c0.441-0.023,0.734-0.073,1.077-0.17c0.466-0.147,0.636-0.54,0.636-1.078V12.52
				c0-0.563-0.269-1.125-0.66-1.395c-0.294-0.197-1.298-0.417-1.738-0.44V9.951l5.728-0.295l0.172,0.173v15.934
				c0,0.538,0.195,0.905,0.637,1.102c0.366,0.171,0.635,0.27,1.076,0.292v0.76H253.691z"/>
			<path fill="#003366" d="M267.862,28.284c-4.234,0-6.168-2.693-6.168-6.096c0-3.107,2.179-5.948,5.898-5.948
				c3.868,0,5.263,2.252,5.263,4.847v0.685h-7.417c0,3.182,1.126,4.919,3.647,4.919c1.469,0,2.473-0.735,3.279-2.104l0.809,0.587
				C272.195,26.914,270.236,28.284,267.862,28.284z M267.446,17.146c-1.15,0-1.958,1.249-2.008,3.745l3.721-0.049
				C269.159,18.933,268.866,17.146,267.446,17.146z"/>
			<path fill="#003366" d="M279.264,28.234c-2.374,0-3.5-1.247-3.5-3.476v-7.024h-2.105v-1.126h2.154v-3.476h3.427v3.476h3.231
				v1.126h-3.207v6.608c0,1.395,0.221,2.251,1.444,2.251c0.856,0,1.151-0.905,1.199-1.982h0.931
				C282.739,26.594,281.956,28.234,279.264,28.234z"/>
			<path fill="#003366" d="M289.688,28.284c-4.234,0-6.168-2.693-6.168-6.096c0-3.107,2.178-5.948,5.898-5.948
				c3.867,0,5.263,2.252,5.263,4.847v0.685h-7.417c0,3.182,1.126,4.919,3.647,4.919c1.469,0,2.473-0.735,3.28-2.104L295,25.174
				C294.021,26.914,292.063,28.284,289.688,28.284z M289.272,17.146c-1.151,0-1.959,1.249-2.008,3.745l3.721-0.049
				C290.985,18.933,290.691,17.146,289.272,17.146z"/>
		</g>
		<g>
			<path fill="#003366" d="M72.91,52.282h-8.224v-0.831c0.49,0,1.493-0.098,1.811-0.22c0.587-0.221,0.759-0.662,0.759-1.2V38.012
				c0-0.539-0.171-1.003-0.759-1.248s-1.273-0.342-1.713-0.367v-0.831h8.591c3.647,0,9.693,1.762,9.693,8.469
				C83.068,49.738,78.026,52.282,72.91,52.282z M73.082,36.569c-0.465,0-1.273,0.023-1.738,0.049v12.8
				c0,1.2,0.661,1.837,2.178,1.837c3.451,0,4.92-2.84,4.92-7.246C78.442,39.554,76.386,36.569,73.082,36.569z"/>
			<path fill="#003366" d="M90.773,52.65c-4.235,0-6.169-2.692-6.169-6.096c0-3.108,2.179-5.947,5.899-5.947
				c3.867,0,5.262,2.252,5.262,4.847v0.685H88.35c0,3.183,1.125,4.92,3.647,4.92c1.468,0,2.472-0.733,3.28-2.104l0.808,0.587
				C95.105,51.28,93.147,52.65,90.773,52.65z M90.356,41.512c-1.15,0-1.958,1.249-2.006,3.746l3.72-0.05
				C92.07,43.298,91.776,41.512,90.356,41.512z"/>
			<path fill="#003366" d="M104.746,52.282v-0.758c0.342-0.024,0.636-0.073,0.905-0.171c0.343-0.148,0.441-0.539,0.441-1.078v-5.457
				c0-1.616-0.685-2.498-1.493-2.498c-1.395,0-2.154,1.005-2.375,1.566v6.267c0,0.538,0.123,0.881,0.49,1.078
				c0.269,0.17,0.587,0.269,0.906,0.293v0.758H97.01v-0.758c0.441-0.024,0.734-0.073,1.078-0.171
				c0.465-0.148,0.636-0.539,0.636-1.078v-6.829c-0.049-0.514-0.27-1.028-0.661-1.298c-0.293-0.194-0.784-0.317-1.224-0.343v-0.733
				l5.213-0.293l0.171,0.17v1.666h0.049c0.93-0.907,1.86-2.008,3.965-2.008c2.276,0,3.377,1.541,3.377,3.867v5.703
				c0,0.538,0.147,0.881,0.588,1.077c0.342,0.146,0.636,0.245,1.077,0.27v0.758H104.746z"/>
			<path fill="#003366" d="M117.102,52.601c-2.374,0-3.5-1.248-3.5-3.477V42.1h-2.105v-1.125h2.154v-3.477h3.427v3.477h3.231V42.1
				h-3.207v6.608c0,1.396,0.221,2.253,1.444,2.253c0.857,0,1.151-0.907,1.2-1.984h0.93
				C120.578,50.961,119.794,52.601,117.102,52.601z"/>
			<path fill="#003366" d="M131.222,52.625c-1.591,0-2.301-0.66-2.791-1.614h-0.073c-0.808,0.88-1.763,1.64-3.696,1.64
				c-1.689,0-2.986-1.199-2.986-2.815c0-2.105,1.2-2.84,2.448-3.304c1.419-0.539,3.329-1.003,4.259-1.519v-1.101
				c0-0.809-0.098-2.474-1.518-2.474c-0.637,0-1.003,0.246-1.248,0.467c0.024,0.367,0.318,0.954,0.318,1.615
				c0,0.538-0.661,1.395-1.958,1.395c-1.297,0-1.762-0.833-1.762-1.64c0-1.543,2.667-2.668,4.822-2.668
				c2.692,0,4.871,0.441,4.871,3.744c0,2.229-0.146,4.798-0.146,5.606c0,0.294,0.098,1.126,0.881,1.126
				c0.636,0,0.857-1.053,0.881-1.959h0.881C134.306,51.451,133.278,52.625,131.222,52.625z M125.372,49.149
				c0,1.226,0.587,1.762,1.322,1.762c0.832,0,1.224-0.39,1.616-0.905l0.098-4.014C126.669,46.653,125.372,47.241,125.372,49.149z"/>
			<path fill="#003366" d="M134.45,52.282v-0.758c0.44-0.024,0.734-0.073,1.077-0.171c0.465-0.148,0.637-0.539,0.637-1.078V36.886
				c0-0.563-0.27-1.125-0.661-1.395c-0.294-0.196-1.298-0.416-1.738-0.441v-0.734l5.728-0.294l0.172,0.172v15.935
				c0,0.539,0.195,0.905,0.636,1.103c0.367,0.17,0.637,0.269,1.077,0.293v0.758H134.45z"/>
			<path fill="#003366" d="M156.621,52.65c-4.846,0-8.688-3.158-8.688-8.519c0-5.312,3.794-8.959,9.08-8.959
				c1.935,0,3.306,0.563,4.407,1.15l0.685-0.978h0.955l0.098,6.339h-1.028c-1.199-3.745-2.644-5.482-4.993-5.482
				c-2.985,0-4.675,2.765-4.675,7.49c0,5.188,2.104,7.392,5.092,7.392c2.545,0,4.038-1.272,5.433-3.427l0.809,0.392
				C162.619,50.544,160.343,52.65,156.621,52.65z"/>
			<path fill="#003366" d="M174.461,52.625c-1.591,0-2.302-0.66-2.791-1.614h-0.073c-0.807,0.88-1.762,1.64-3.695,1.64
				c-1.689,0-2.986-1.199-2.986-2.815c0-2.105,1.199-2.84,2.447-3.304c1.42-0.539,3.329-1.003,4.26-1.519v-1.101
				c0-0.809-0.099-2.474-1.519-2.474c-0.636,0-1.003,0.246-1.248,0.467c0.024,0.367,0.317,0.954,0.317,1.615
				c0,0.538-0.659,1.395-1.957,1.395c-1.297,0-1.763-0.833-1.763-1.64c0-1.543,2.669-2.668,4.822-2.668
				c2.692,0,4.871,0.441,4.871,3.744c0,2.229-0.146,4.798-0.146,5.606c0,0.294,0.098,1.126,0.881,1.126
				c0.637,0,0.856-1.053,0.881-1.959h0.881C177.545,51.451,176.518,52.625,174.461,52.625z M168.61,49.149
				c0,1.226,0.588,1.762,1.322,1.762c0.832,0,1.224-0.39,1.615-0.905l0.099-4.014C169.908,46.653,168.61,47.241,168.61,49.149z"/>
			<path fill="#003366" d="M186.818,45.134c-1.004,0-1.813-0.464-1.813-1.565c0-0.539,0.147-1.027,0.196-1.2
				c-1.103,0.026-1.86,0.93-2.081,1.273v6.511c0,0.538,0.246,0.881,0.686,1.078c0.393,0.17,1.225,0.269,1.616,0.293v0.758h-7.515
				v-0.758c0.44-0.024,0.734-0.073,1.077-0.171c0.465-0.148,0.637-0.539,0.637-1.078v-6.829c-0.05-0.514-0.27-1.028-0.662-1.298
				c-0.293-0.194-0.782-0.317-1.223-0.343v-0.733l5.213-0.293l0.171,0.17v1.64h0.049c1.029-1.272,2.081-1.933,3.28-1.933
				c1.298,0,2.203,0.955,2.203,2.35C188.653,44.181,187.92,45.134,186.818,45.134z"/>
			<path fill="#003366" d="M195.626,52.65c-4.234,0-6.168-2.692-6.168-6.096c0-3.108,2.179-5.947,5.898-5.947
				c3.868,0,5.263,2.252,5.263,4.847v0.685h-7.416c0,3.183,1.125,4.92,3.646,4.92c1.47,0,2.473-0.733,3.28-2.104l0.808,0.587
				C199.959,51.28,198.001,52.65,195.626,52.65z M195.21,41.512c-1.15,0-1.959,1.249-2.007,3.746l3.72-0.05
				C196.923,43.298,196.629,41.512,195.21,41.512z"/>
		</g>
	</g>
	<g>
		<polygon fill="#FFE100" points="36.99,0 27.275,44.195 5.861,49.431 		"/>
		<polygon fill="#FFE100" points="37.278,8.839 51.257,37.902 30.312,43.138 		"/>
		<path fill="#003366" d="M0,62.306c0,0,3.218-6.324,11.975-11.354c8.279-4.757,17.475-2.903,23.745-3.978
			c6.271-1.073,15.965-5.683,15.965-5.683s-6.566,8.352-14.136,12.217c-8.671,4.428-18.583,1.229-27.335,4.525
			C2.69,60.869,0,62.306,0,62.306z"/>
	</g>
</g>
</svg>
